<svg width="295" height="153" viewBox="0 0 295 153" fill="none" xmlns="http://www.w3.org/2000/svg">
<rect y="30" width="295" height="36" rx="5" fill="#D9D9D9"/>
<rect y="117" width="295" height="36" rx="5" fill="#D9D9D9"/>
<path d="M9.40625 17H3.46875V5.79688H9.15625V6.98438H4.78125V10.7109H8.82812V11.8906H4.78125V15.8125H9.40625V17ZM22.75 17H21.4688V12.4062C21.4688 11.5208 21.3307 10.8802 21.0547 10.4844C20.7839 10.0885 20.3255 9.89062 19.6797 9.89062C19.1328 9.89062 18.6667 10.1406 18.2812 10.6406C17.901 11.1406 17.7109 11.7396 17.7109 12.4375V17H16.4297V12.25C16.4297 10.6771 15.8229 9.89062 14.6094 9.89062C14.0469 9.89062 13.5833 10.1276 13.2188 10.6016C12.8542 11.0703 12.6719 11.6823 12.6719 12.4375V17H11.3906V9H12.6719V10.2656H12.7031C13.2708 9.29688 14.099 8.8125 15.1875 8.8125C15.7344 8.8125 16.2109 8.96615 16.6172 9.27344C17.0234 9.57552 17.3021 9.97396 17.4531 10.4688C18.0469 9.36458 18.9323 8.8125 20.1094 8.8125C21.8698 8.8125 22.75 9.89844 22.75 12.0703V17ZM30.8984 17H29.6172V15.75H29.5859C29.0286 16.7083 28.2083 17.1875 27.125 17.1875C26.3281 17.1875 25.7031 16.9766 25.25 16.5547C24.8021 16.1328 24.5781 15.5729 24.5781 14.875C24.5781 13.3802 25.4583 12.5104 27.2188 12.2656L29.6172 11.9297C29.6172 10.5703 29.0677 9.89062 27.9688 9.89062C27.0052 9.89062 26.1354 10.2188 25.3594 10.875V9.5625C26.1458 9.0625 27.0521 8.8125 28.0781 8.8125C29.9583 8.8125 30.8984 9.80729 30.8984 11.7969V17ZM29.6172 12.9531L27.6875 13.2188C27.0938 13.3021 26.6458 13.4505 26.3438 13.6641C26.0417 13.8724 25.8906 14.2448 25.8906 14.7812C25.8906 15.1719 26.0286 15.4922 26.3047 15.7422C26.5859 15.987 26.9583 16.1094 27.4219 16.1094C28.0573 16.1094 28.5807 15.888 28.9922 15.4453C29.4089 14.9974 29.6172 14.4323 29.6172 13.75V12.9531ZM33.9688 6.96875C33.7396 6.96875 33.5443 6.89062 33.3828 6.73438C33.2214 6.57812 33.1406 6.38021 33.1406 6.14062C33.1406 5.90104 33.2214 5.70312 33.3828 5.54688C33.5443 5.38542 33.7396 5.30469 33.9688 5.30469C34.2031 5.30469 34.401 5.38542 34.5625 5.54688C34.7292 5.70312 34.8125 5.90104 34.8125 6.14062C34.8125 6.36979 34.7292 6.5651 34.5625 6.72656C34.401 6.88802 34.2031 6.96875 33.9688 6.96875ZM34.5938 17H33.3125V9H34.5938V17ZM38.4688 17H37.1875V5.15625H38.4688V17ZM54.2969 17H52.8438L51.6562 13.8594H46.9062L45.7891 17H44.3281L48.625 5.79688H49.9844L54.2969 17ZM51.2266 12.6797L49.4688 7.90625C49.4115 7.75 49.3542 7.5 49.2969 7.15625H49.2656C49.2135 7.47396 49.1536 7.72396 49.0859 7.90625L47.3438 12.6797H51.2266ZM62.6094 17H61.3281V15.6406H61.2969C60.7031 16.6719 59.7865 17.1875 58.5469 17.1875C57.5417 17.1875 56.737 16.8307 56.1328 16.1172C55.5339 15.3984 55.2344 14.4219 55.2344 13.1875C55.2344 11.8646 55.5677 10.8047 56.2344 10.0078C56.901 9.21094 57.7891 8.8125 58.8984 8.8125C59.9974 8.8125 60.7969 9.24479 61.2969 10.1094H61.3281V5.15625H62.6094V17ZM61.3281 13.3828V12.2031C61.3281 11.5573 61.1146 11.0104 60.6875 10.5625C60.2604 10.1146 59.7188 9.89062 59.0625 9.89062C58.2812 9.89062 57.6667 10.1771 57.2188 10.75C56.7708 11.3229 56.5469 12.1146 56.5469 13.125C56.5469 14.0469 56.7604 14.776 57.1875 15.3125C57.6198 15.8438 58.1979 16.1094 58.9219 16.1094C59.6354 16.1094 60.2135 15.8516 60.6562 15.3359C61.1042 14.8203 61.3281 14.1693 61.3281 13.3828ZM72.0312 17H70.75V15.6406H70.7188C70.125 16.6719 69.2083 17.1875 67.9688 17.1875C66.9635 17.1875 66.1589 16.8307 65.5547 16.1172C64.9557 15.3984 64.6562 14.4219 64.6562 13.1875C64.6562 11.8646 64.9896 10.8047 65.6562 10.0078C66.3229 9.21094 67.2109 8.8125 68.3203 8.8125C69.4193 8.8125 70.2188 9.24479 70.7188 10.1094H70.75V5.15625H72.0312V17ZM70.75 13.3828V12.2031C70.75 11.5573 70.5365 11.0104 70.1094 10.5625C69.6823 10.1146 69.1406 9.89062 68.4844 9.89062C67.7031 9.89062 67.0885 10.1771 66.6406 10.75C66.1927 11.3229 65.9688 12.1146 65.9688 13.125C65.9688 14.0469 66.1823 14.776 66.6094 15.3125C67.0417 15.8438 67.6198 16.1094 68.3438 16.1094C69.0573 16.1094 69.6354 15.8516 70.0781 15.3359C70.526 14.8203 70.75 14.1693 70.75 13.3828ZM78.7969 10.2969C78.5729 10.125 78.25 10.0391 77.8281 10.0391C77.2812 10.0391 76.8229 10.2969 76.4531 10.8125C76.0885 11.3281 75.9062 12.0312 75.9062 12.9219V17H74.625V9H75.9062V10.6484H75.9375C76.1198 10.0859 76.3984 9.64844 76.7734 9.33594C77.1484 9.01823 77.5677 8.85938 78.0312 8.85938C78.3646 8.85938 78.6198 8.89583 78.7969 8.96875V10.2969ZM86.6172 13.3203H80.9688C80.9896 14.2109 81.2292 14.8984 81.6875 15.3828C82.1458 15.8672 82.776 16.1094 83.5781 16.1094C84.4792 16.1094 85.3073 15.8125 86.0625 15.2188V16.4219C85.3594 16.9323 84.4297 17.1875 83.2734 17.1875C82.1432 17.1875 81.2552 16.8255 80.6094 16.1016C79.9635 15.3724 79.6406 14.349 79.6406 13.0312C79.6406 11.7865 79.9922 10.7734 80.6953 9.99219C81.4036 9.20573 82.2812 8.8125 83.3281 8.8125C84.375 8.8125 85.1849 9.15104 85.7578 9.82812C86.3307 10.5052 86.6172 11.4453 86.6172 12.6484V13.3203ZM85.3047 12.2344C85.2995 11.4948 85.1198 10.9193 84.7656 10.5078C84.4167 10.0964 83.9297 9.89062 83.3047 9.89062C82.7005 9.89062 82.1875 10.1068 81.7656 10.5391C81.3438 10.9714 81.0833 11.5365 80.9844 12.2344H85.3047ZM88.0781 16.7109V15.3359C88.776 15.8516 89.5443 16.1094 90.3828 16.1094C91.5078 16.1094 92.0703 15.7344 92.0703 14.9844C92.0703 14.7708 92.0208 14.5911 91.9219 14.4453C91.8281 14.2943 91.6979 14.1615 91.5312 14.0469C91.3698 13.9323 91.1771 13.8307 90.9531 13.7422C90.7344 13.6484 90.4974 13.5521 90.2422 13.4531C89.888 13.3125 89.5755 13.1719 89.3047 13.0312C89.0391 12.8854 88.8151 12.724 88.6328 12.5469C88.4557 12.3646 88.3203 12.1589 88.2266 11.9297C88.138 11.7005 88.0938 11.4323 88.0938 11.125C88.0938 10.75 88.1797 10.4193 88.3516 10.1328C88.5234 9.84115 88.7526 9.59896 89.0391 9.40625C89.3255 9.20833 89.651 9.0599 90.0156 8.96094C90.3854 8.86198 90.7656 8.8125 91.1562 8.8125C91.849 8.8125 92.4688 8.93229 93.0156 9.17188V10.4688C92.4271 10.0833 91.75 9.89062 90.9844 9.89062C90.7448 9.89062 90.5286 9.91927 90.3359 9.97656C90.1432 10.0286 89.9766 10.1042 89.8359 10.2031C89.7005 10.3021 89.5938 10.4219 89.5156 10.5625C89.4427 10.6979 89.4062 10.849 89.4062 11.0156C89.4062 11.224 89.4427 11.3984 89.5156 11.5391C89.5938 11.6797 89.7057 11.8047 89.8516 11.9141C89.9974 12.0234 90.1745 12.1224 90.3828 12.2109C90.5911 12.2995 90.8281 12.3958 91.0938 12.5C91.4479 12.6354 91.7656 12.776 92.0469 12.9219C92.3281 13.0625 92.5677 13.224 92.7656 13.4062C92.9635 13.5833 93.1146 13.7891 93.2188 14.0234C93.3281 14.2578 93.3828 14.5365 93.3828 14.8594C93.3828 15.2552 93.2943 15.599 93.1172 15.8906C92.9453 16.1823 92.7135 16.4245 92.4219 16.6172C92.1302 16.8099 91.7943 16.9531 91.4141 17.0469C91.0339 17.1406 90.6354 17.1875 90.2188 17.1875C89.3958 17.1875 88.6823 17.0286 88.0781 16.7109ZM94.875 16.7109V15.3359C95.5729 15.8516 96.3411 16.1094 97.1797 16.1094C98.3047 16.1094 98.8672 15.7344 98.8672 14.9844C98.8672 14.7708 98.8177 14.5911 98.7188 14.4453C98.625 14.2943 98.4948 14.1615 98.3281 14.0469C98.1667 13.9323 97.974 13.8307 97.75 13.7422C97.5312 13.6484 97.2943 13.5521 97.0391 13.4531C96.6849 13.3125 96.3724 13.1719 96.1016 13.0312C95.8359 12.8854 95.612 12.724 95.4297 12.5469C95.2526 12.3646 95.1172 12.1589 95.0234 11.9297C94.9349 11.7005 94.8906 11.4323 94.8906 11.125C94.8906 10.75 94.9766 10.4193 95.1484 10.1328C95.3203 9.84115 95.5495 9.59896 95.8359 9.40625C96.1224 9.20833 96.4479 9.0599 96.8125 8.96094C97.1823 8.86198 97.5625 8.8125 97.9531 8.8125C98.6458 8.8125 99.2656 8.93229 99.8125 9.17188V10.4688C99.224 10.0833 98.5469 9.89062 97.7812 9.89062C97.5417 9.89062 97.3255 9.91927 97.1328 9.97656C96.9401 10.0286 96.7734 10.1042 96.6328 10.2031C96.4974 10.3021 96.3906 10.4219 96.3125 10.5625C96.2396 10.6979 96.2031 10.849 96.2031 11.0156C96.2031 11.224 96.2396 11.3984 96.3125 11.5391C96.3906 11.6797 96.5026 11.8047 96.6484 11.9141C96.7943 12.0234 96.9714 12.1224 97.1797 12.2109C97.388 12.2995 97.625 12.3958 97.8906 12.5C98.2448 12.6354 98.5625 12.776 98.8438 12.9219C99.125 13.0625 99.3646 13.224 99.5625 13.4062C99.7604 13.5833 99.9115 13.7891 100.016 14.0234C100.125 14.2578 100.18 14.5365 100.18 14.8594C100.18 15.2552 100.091 15.599 99.9141 15.8906C99.7422 16.1823 99.5104 16.4245 99.2188 16.6172C98.9271 16.8099 98.5911 16.9531 98.2109 17.0469C97.8307 17.1406 97.4323 17.1875 97.0156 17.1875C96.1927 17.1875 95.4792 17.0286 94.875 16.7109ZM102.602 10.5625C102.362 10.5625 102.156 10.4766 101.984 10.3047C101.818 10.1328 101.734 9.92708 101.734 9.6875C101.734 9.44792 101.818 9.24479 101.984 9.07812C102.156 8.91146 102.362 8.82812 102.602 8.82812C102.846 8.82812 103.055 8.91146 103.227 9.07812C103.398 9.24479 103.484 9.44792 103.484 9.6875C103.484 9.92708 103.398 10.1328 103.227 10.3047C103.055 10.4766 102.846 10.5625 102.602 10.5625ZM102.602 17.1719C102.362 17.1719 102.156 17.0859 101.984 16.9141C101.818 16.7422 101.734 16.5365 101.734 16.2969C101.734 16.0573 101.818 15.8516 101.984 15.6797C102.156 15.5026 102.362 15.4141 102.602 15.4141C102.846 15.4141 103.055 15.5026 103.227 15.6797C103.398 15.8516 103.484 16.0573 103.484 16.2969C103.484 16.5365 103.398 16.7422 103.227 16.9141C103.055 17.0859 102.846 17.1719 102.602 17.1719Z" fill="black"/>
<path d="M4.78125 99.7656V104H3.46875V92.7969H6.54688C7.74479 92.7969 8.67188 93.0885 9.32812 93.6719C9.98958 94.2552 10.3203 95.0781 10.3203 96.1406C10.3203 97.2031 9.95312 98.0729 9.21875 98.75C8.48958 99.4271 7.5026 99.7656 6.25781 99.7656H4.78125ZM4.78125 93.9844V98.5781H6.15625C7.0625 98.5781 7.7526 98.3724 8.22656 97.9609C8.70573 97.5443 8.94531 96.9583 8.94531 96.2031C8.94531 94.724 8.07031 93.9844 6.32031 93.9844H4.78125ZM17.4453 104H16.1641V102.75H16.1328C15.5755 103.708 14.7552 104.188 13.6719 104.188C12.875 104.188 12.25 103.977 11.7969 103.555C11.349 103.133 11.125 102.573 11.125 101.875C11.125 100.38 12.0052 99.5104 13.7656 99.2656L16.1641 98.9297C16.1641 97.5703 15.6146 96.8906 14.5156 96.8906C13.5521 96.8906 12.6823 97.2188 11.9062 97.875V96.5625C12.6927 96.0625 13.599 95.8125 14.625 95.8125C16.5052 95.8125 17.4453 96.8073 17.4453 98.7969V104ZM16.1641 99.9531L14.2344 100.219C13.6406 100.302 13.1927 100.451 12.8906 100.664C12.5885 100.872 12.4375 101.245 12.4375 101.781C12.4375 102.172 12.5755 102.492 12.8516 102.742C13.1328 102.987 13.5052 103.109 13.9688 103.109C14.6042 103.109 15.1276 102.888 15.5391 102.445C15.9557 101.997 16.1641 101.432 16.1641 100.75V99.9531ZM19.375 103.711V102.336C20.0729 102.852 20.8411 103.109 21.6797 103.109C22.8047 103.109 23.3672 102.734 23.3672 101.984C23.3672 101.771 23.3177 101.591 23.2188 101.445C23.125 101.294 22.9948 101.161 22.8281 101.047C22.6667 100.932 22.474 100.831 22.25 100.742C22.0312 100.648 21.7943 100.552 21.5391 100.453C21.1849 100.312 20.8724 100.172 20.6016 100.031C20.3359 99.8854 20.112 99.724 19.9297 99.5469C19.7526 99.3646 19.6172 99.1589 19.5234 98.9297C19.4349 98.7005 19.3906 98.4323 19.3906 98.125C19.3906 97.75 19.4766 97.4193 19.6484 97.1328C19.8203 96.8411 20.0495 96.599 20.3359 96.4062C20.6224 96.2083 20.9479 96.0599 21.3125 95.9609C21.6823 95.862 22.0625 95.8125 22.4531 95.8125C23.1458 95.8125 23.7656 95.9323 24.3125 96.1719V97.4688C23.724 97.0833 23.0469 96.8906 22.2812 96.8906C22.0417 96.8906 21.8255 96.9193 21.6328 96.9766C21.4401 97.0286 21.2734 97.1042 21.1328 97.2031C20.9974 97.3021 20.8906 97.4219 20.8125 97.5625C20.7396 97.6979 20.7031 97.849 20.7031 98.0156C20.7031 98.224 20.7396 98.3984 20.8125 98.5391C20.8906 98.6797 21.0026 98.8047 21.1484 98.9141C21.2943 99.0234 21.4714 99.1224 21.6797 99.2109C21.888 99.2995 22.125 99.3958 22.3906 99.5C22.7448 99.6354 23.0625 99.776 23.3438 99.9219C23.625 100.062 23.8646 100.224 24.0625 100.406C24.2604 100.583 24.4115 100.789 24.5156 101.023C24.625 101.258 24.6797 101.536 24.6797 101.859C24.6797 102.255 24.5911 102.599 24.4141 102.891C24.2422 103.182 24.0104 103.424 23.7188 103.617C23.4271 103.81 23.0911 103.953 22.7109 104.047C22.3307 104.141 21.9323 104.188 21.5156 104.188C20.6927 104.188 19.9792 104.029 19.375 103.711ZM26.1719 103.711V102.336C26.8698 102.852 27.638 103.109 28.4766 103.109C29.6016 103.109 30.1641 102.734 30.1641 101.984C30.1641 101.771 30.1146 101.591 30.0156 101.445C29.9219 101.294 29.7917 101.161 29.625 101.047C29.4635 100.932 29.2708 100.831 29.0469 100.742C28.8281 100.648 28.5911 100.552 28.3359 100.453C27.9818 100.312 27.6693 100.172 27.3984 100.031C27.1328 99.8854 26.9089 99.724 26.7266 99.5469C26.5495 99.3646 26.4141 99.1589 26.3203 98.9297C26.2318 98.7005 26.1875 98.4323 26.1875 98.125C26.1875 97.75 26.2734 97.4193 26.4453 97.1328C26.6172 96.8411 26.8464 96.599 27.1328 96.4062C27.4193 96.2083 27.7448 96.0599 28.1094 95.9609C28.4792 95.862 28.8594 95.8125 29.25 95.8125C29.9427 95.8125 30.5625 95.9323 31.1094 96.1719V97.4688C30.5208 97.0833 29.8438 96.8906 29.0781 96.8906C28.8385 96.8906 28.6224 96.9193 28.4297 96.9766C28.237 97.0286 28.0703 97.1042 27.9297 97.2031C27.7943 97.3021 27.6875 97.4219 27.6094 97.5625C27.5365 97.6979 27.5 97.849 27.5 98.0156C27.5 98.224 27.5365 98.3984 27.6094 98.5391C27.6875 98.6797 27.7995 98.8047 27.9453 98.9141C28.0911 99.0234 28.2682 99.1224 28.4766 99.2109C28.6849 99.2995 28.9219 99.3958 29.1875 99.5C29.5417 99.6354 29.8594 99.776 30.1406 99.9219C30.4219 100.062 30.6615 100.224 30.8594 100.406C31.0573 100.583 31.2083 100.789 31.3125 101.023C31.4219 101.258 31.4766 101.536 31.4766 101.859C31.4766 102.255 31.388 102.599 31.2109 102.891C31.0391 103.182 30.8073 103.424 30.5156 103.617C30.224 103.81 29.888 103.953 29.5078 104.047C29.1276 104.141 28.7292 104.188 28.3125 104.188C27.4896 104.188 26.776 104.029 26.1719 103.711ZM43.5312 96L41.1328 104H39.8047L38.1562 98.2734C38.0938 98.0547 38.0521 97.8073 38.0312 97.5312H38C37.9844 97.7188 37.9297 97.9609 37.8359 98.2578L36.0469 104H34.7656L32.3438 96H33.6875L35.3438 102.016C35.3958 102.198 35.4323 102.438 35.4531 102.734H35.5156C35.5312 102.505 35.5781 102.26 35.6562 102L37.5 96H38.6719L40.3281 102.031C40.3802 102.224 40.4193 102.464 40.4453 102.75H40.5078C40.5182 102.547 40.5625 102.307 40.6406 102.031L42.2656 96H43.5312ZM48.3594 104.188C47.1771 104.188 46.2318 103.815 45.5234 103.07C44.8203 102.32 44.4688 101.328 44.4688 100.094C44.4688 98.75 44.8359 97.7005 45.5703 96.9453C46.3047 96.1901 47.2969 95.8125 48.5469 95.8125C49.7396 95.8125 50.6693 96.1797 51.3359 96.9141C52.0078 97.6484 52.3438 98.6667 52.3438 99.9688C52.3438 101.245 51.9818 102.268 51.2578 103.039C50.5391 103.805 49.5729 104.188 48.3594 104.188ZM48.4531 96.8906C47.6302 96.8906 46.9792 97.1719 46.5 97.7344C46.0208 98.2917 45.7812 99.0625 45.7812 100.047C45.7812 100.995 46.0234 101.742 46.5078 102.289C46.9922 102.836 47.6406 103.109 48.4531 103.109C49.2812 103.109 49.9167 102.841 50.3594 102.305C50.8073 101.768 51.0312 101.005 51.0312 100.016C51.0312 99.0156 50.8073 98.2448 50.3594 97.7031C49.9167 97.1615 49.2812 96.8906 48.4531 96.8906ZM58.5625 97.2969C58.3385 97.125 58.0156 97.0391 57.5938 97.0391C57.0469 97.0391 56.5885 97.2969 56.2188 97.8125C55.8542 98.3281 55.6719 99.0312 55.6719 99.9219V104H54.3906V96H55.6719V97.6484H55.7031C55.8854 97.0859 56.1641 96.6484 56.5391 96.3359C56.9141 96.0182 57.3333 95.8594 57.7969 95.8594C58.1302 95.8594 58.3854 95.8958 58.5625 95.9688V97.2969ZM66.7812 104H65.5V102.641H65.4688C64.875 103.672 63.9583 104.188 62.7188 104.188C61.7135 104.188 60.9089 103.831 60.3047 103.117C59.7057 102.398 59.4062 101.422 59.4062 100.188C59.4062 98.8646 59.7396 97.8047 60.4062 97.0078C61.0729 96.2109 61.9609 95.8125 63.0703 95.8125C64.1693 95.8125 64.9688 96.2448 65.4688 97.1094H65.5V92.1562H66.7812V104ZM65.5 100.383V99.2031C65.5 98.5573 65.2865 98.0104 64.8594 97.5625C64.4323 97.1146 63.8906 96.8906 63.2344 96.8906C62.4531 96.8906 61.8385 97.1771 61.3906 97.75C60.9427 98.3229 60.7188 99.1146 60.7188 100.125C60.7188 101.047 60.9323 101.776 61.3594 102.312C61.7917 102.844 62.3698 103.109 63.0938 103.109C63.8073 103.109 64.3854 102.852 64.8281 102.336C65.276 101.82 65.5 101.169 65.5 100.383ZM69.8203 97.5625C69.5807 97.5625 69.375 97.4766 69.2031 97.3047C69.0365 97.1328 68.9531 96.9271 68.9531 96.6875C68.9531 96.4479 69.0365 96.2448 69.2031 96.0781C69.375 95.9115 69.5807 95.8281 69.8203 95.8281C70.0651 95.8281 70.2734 95.9115 70.4453 96.0781C70.6172 96.2448 70.7031 96.4479 70.7031 96.6875C70.7031 96.9271 70.6172 97.1328 70.4453 97.3047C70.2734 97.4766 70.0651 97.5625 69.8203 97.5625ZM69.8203 104.172C69.5807 104.172 69.375 104.086 69.2031 103.914C69.0365 103.742 68.9531 103.536 68.9531 103.297C68.9531 103.057 69.0365 102.852 69.2031 102.68C69.375 102.503 69.5807 102.414 69.8203 102.414C70.0651 102.414 70.2734 102.503 70.4453 102.68C70.6172 102.852 70.7031 103.057 70.7031 103.297C70.7031 103.536 70.6172 103.742 70.4453 103.914C70.2734 104.086 70.0651 104.172 69.8203 104.172Z" fill="black"/>
</svg>
