<svg xmlns="http://www.w3.org/2000/svg" width="473.494" height="274.691" viewBox="0 0 473.494 274.691">
  <g id="Hide_Icon" data-name="Hide Icon" transform="translate(0.757)">
    <g id="Outer_Eye" data-name="Outer Eye" transform="translate(22.325)" fill="none">
      <path d="M0,137.345a253.309,253.309,0,0,1,450.412,0A253.309,253.309,0,0,1,0,137.345Z" stroke="none"/>
      <path d="M 225.2061614990234 3.000030517578125 C 201.4619903564453 3.000030517578125 177.9708557128906 6.321258544921875 155.3854064941406 12.87142944335938 C 133.5051574707031 19.21707153320312 112.5742797851562 28.557373046875 93.17422485351562 40.63278198242188 C 74.07308959960938 52.52207946777344 56.63327026367188 66.94813537597656 41.33917236328125 83.51025390625 C 26.35482788085938 99.73687744140625 13.5889892578125 117.8435668945312 3.380615234375 137.3454895019531 C 13.5889892578125 156.847412109375 26.35482788085938 174.9541015625 41.33917236328125 191.1807250976562 C 56.63327026367188 207.7428436279297 74.07308959960938 222.1688995361328 93.17422485351562 234.0581970214844 C 112.5742797851562 246.1336059570312 133.5051574707031 255.4739074707031 155.3854064941406 261.8195495605469 C 177.9708557128906 268.3697204589844 201.4619903564453 271.6909484863281 225.2061614990234 271.6909484863281 C 248.9503326416016 271.6909484863281 272.4414672851562 268.3697204589844 295.0269165039062 261.8195495605469 C 316.9071655273438 255.4739074707031 337.8379821777344 246.1336059570312 357.2380981445312 234.0581970214844 C 376.3391723632812 222.1688995361328 393.7789916992188 207.7428436279297 409.0731506347656 191.1807250976562 C 424.0574951171875 174.9541015625 436.8233337402344 156.847412109375 447.0317077636719 137.3454895019531 C 436.8233337402344 117.8435668945312 424.0574951171875 99.73687744140625 409.0731506347656 83.51025390625 C 393.7789916992188 66.94813537597656 376.3391723632812 52.52207946777344 357.2380981445312 40.63278198242188 C 337.8379821777344 28.557373046875 316.9071655273438 19.21707153320312 295.0269165039062 12.87142944335938 C 272.4414672851562 6.321258544921875 248.9503326416016 3.000030517578125 225.2061614990234 3.000030517578125 M 225.2061614990234 3.0517578125e-05 C 323.2954711914062 3.0517578125e-05 408.3607482910156 55.78042602539062 450.4123229980469 137.3454895019531 C 408.3607482910156 218.9105529785156 323.2954711914062 274.6909484863281 225.2061614990234 274.6909484863281 C 127.1168823242188 274.6909484863281 42.051513671875 218.9105529785156 0 137.3454895019531 C 42.051513671875 55.78042602539062 127.1168823242188 3.0517578125e-05 225.2061614990234 3.0517578125e-05 Z" stroke="none" fill="#707070"/>
    </g>
    <line id="Line_1" data-name="Line 1" y1="263.78" x2="450.915" transform="translate(0 5.455)" fill="none" stroke="#707070" stroke-width="3"/>
  </g>
</svg>
