<svg id="Show_Icon" data-name="Show Icon" xmlns="http://www.w3.org/2000/svg" width="452.495" height="278.209" viewBox="0 0 452.495 278.209">
  <g id="Outer_Eye" data-name="Outer Eye" transform="translate(0 0)" fill="none">
    <path d="M0,137.981a254.48,254.48,0,0,1,452.495,0A254.48,254.48,0,0,1,0,137.981Z" stroke="none"/>
    <path d="M 226.2474670410156 2.000030517578125 C 202.2978820800781 2.000030517578125 178.6031799316406 5.350067138671875 155.8214721679688 11.95718383789062 C 133.7508239746094 18.35806274414062 112.637939453125 27.779541015625 93.06930541992188 39.95989990234375 C 73.80276489257812 51.95219421386719 56.21194458007812 66.50312805175781 40.785400390625 83.20860290527344 C 25.55050659179688 99.70657348632812 12.59017944335938 118.1295013427734 2.252532958984375 137.9805450439453 C 12.59017944335938 157.8315887451172 25.55050659179688 176.2545166015625 40.785400390625 192.7524871826172 C 56.21194458007812 209.4579467773438 73.80276489257812 224.0088958740234 93.06930541992188 236.0011901855469 C 112.637939453125 248.1815490722656 133.7508239746094 257.60302734375 155.8214721679688 264.00390625 C 178.6031799316406 270.6110229492188 202.2978820800781 273.9610595703125 226.2474670410156 273.9610595703125 C 250.1970520019531 273.9610595703125 273.8917541503906 270.6110229492188 296.6734619140625 264.00390625 C 318.7441101074219 257.60302734375 339.8569946289062 248.1815490722656 359.4256591796875 236.0011901855469 C 378.6921691894531 224.0088958740234 396.2829895019531 209.4579467773438 411.70947265625 192.7524871826172 C 426.9444274902344 176.2545166015625 439.9047546386719 157.8315887451172 450.2424011230469 137.9805450439453 C 439.9047546386719 118.1295013427734 426.9444274902344 99.70657348632812 411.70947265625 83.20860290527344 C 396.2829895019531 66.50312805175781 378.6921691894531 51.95219421386719 359.4256591796875 39.95989990234375 C 339.8569946289062 27.779541015625 318.7441101074219 18.35806274414062 296.6734619140625 11.95718383789062 C 273.8917541503906 5.350067138671875 250.1970520019531 2.000030517578125 226.2474670410156 2.000030517578125 M 226.2474670410156 3.0517578125e-05 C 324.790283203125 3.0517578125e-05 410.2489318847656 56.03837585449219 452.4949340820312 137.9805450439453 C 410.2489318847656 219.9227294921875 324.790283203125 275.9610595703125 226.2474670410156 275.9610595703125 C 127.7046508789062 275.9610595703125 42.24594116210938 219.9227294921875 0 137.9805450439453 C 42.24594116210938 56.03837585449219 127.7046508789062 3.0517578125e-05 226.2474670410156 3.0517578125e-05 Z" stroke="none" fill="#707070"/>
  </g>
  <g id="Inner_Eye" data-name="Inner Eye" transform="translate(90.832)" fill="none" stroke="#707070" stroke-width="2">
    <circle cx="139.105" cy="139.105" r="139.105" stroke="none"/>
    <circle cx="139.105" cy="139.105" r="138.105" fill="none"/>
  </g>
  <circle id="Pupil" cx="79.515" cy="79.515" r="79.515" transform="translate(147.686 53.01)" fill="#707070"/>
</svg>
