<svg width="75" height="15" viewBox="0 0 75 15" fill="none" xmlns="http://www.w3.org/2000/svg">
<rect width="75" height="15" rx="3" fill="#1E1C1C"/>
<path d="M8.85795 5.54545C8.81534 5.18561 8.64252 4.90625 8.33949 4.70739C8.03646 4.50852 7.66477 4.40909 7.22443 4.40909C6.90246 4.40909 6.62074 4.46117 6.37926 4.56534C6.14015 4.66951 5.95313 4.81274 5.81818 4.99503C5.68561 5.17732 5.61932 5.38447 5.61932 5.61648C5.61932 5.81061 5.66548 5.97751 5.75781 6.11719C5.85251 6.2545 5.97325 6.36932 6.12003 6.46165C6.26681 6.55161 6.42069 6.62618 6.58168 6.68537C6.74266 6.74219 6.89062 6.78835 7.02557 6.82386L7.7642 7.02273C7.9536 7.07244 8.1643 7.1411 8.39631 7.22869C8.63068 7.31629 8.8544 7.43584 9.06747 7.58736C9.28291 7.73651 9.46046 7.92827 9.60014 8.16264C9.73982 8.39702 9.80966 8.68466 9.80966 9.02557C9.80966 9.41856 9.70668 9.77367 9.50071 10.0909C9.29711 10.4081 8.99882 10.6603 8.60582 10.8473C8.2152 11.0343 7.74053 11.1278 7.18182 11.1278C6.66098 11.1278 6.20999 11.0438 5.82884 10.8757C5.45005 10.7076 5.15175 10.4732 4.93395 10.1726C4.71851 9.87192 4.59659 9.52273 4.56818 9.125H5.47727C5.50095 9.39962 5.59328 9.62689 5.75426 9.80682C5.91761 9.98437 6.12358 10.117 6.37216 10.2045C6.62311 10.2898 6.89299 10.3324 7.18182 10.3324C7.51799 10.3324 7.81984 10.2779 8.08736 10.169C8.35488 10.0578 8.56676 9.90388 8.72301 9.70739C8.87926 9.50852 8.95739 9.27652 8.95739 9.01136C8.95739 8.76989 8.88991 8.57339 8.75497 8.42188C8.62003 8.27036 8.44247 8.14725 8.2223 8.05256C8.00213 7.95786 7.7642 7.875 7.50852 7.80398L6.61364 7.5483C6.04545 7.38494 5.59564 7.15175 5.2642 6.84872C4.93277 6.54569 4.76705 6.14915 4.76705 5.65909C4.76705 5.25189 4.87713 4.89678 5.0973 4.59375C5.31984 4.28835 5.61813 4.05161 5.99219 3.88352C6.36861 3.71307 6.78883 3.62784 7.25284 3.62784C7.72159 3.62784 8.13826 3.71188 8.50284 3.87997C8.86742 4.04569 9.15625 4.27296 9.36932 4.56179C9.58475 4.85062 9.69839 5.1785 9.71023 5.54545H8.85795ZM13.4309 11.1136C12.9054 11.1136 12.452 10.9976 12.0708 10.7656C11.6921 10.5312 11.3997 10.2045 11.1937 9.78551C10.9901 9.36411 10.8883 8.87405 10.8883 8.31534C10.8883 7.75663 10.9901 7.2642 11.1937 6.83807C11.3997 6.40956 11.6861 6.07576 12.0531 5.83665C12.4224 5.59517 12.8533 5.47443 13.3457 5.47443C13.6298 5.47443 13.9103 5.52178 14.1873 5.61648C14.4643 5.71117 14.7164 5.86506 14.9437 6.07812C15.171 6.28883 15.3521 6.56818 15.487 6.91619C15.622 7.2642 15.6895 7.69271 15.6895 8.2017V8.55682H11.4849V7.83239H14.8372C14.8372 7.52462 14.7756 7.25 14.6525 7.00852C14.5318 6.76705 14.359 6.57647 14.1341 6.43679C13.9115 6.29711 13.6487 6.22727 13.3457 6.22727C13.0119 6.22727 12.7231 6.31013 12.4792 6.47585C12.2377 6.6392 12.0519 6.85227 11.9217 7.11506C11.7915 7.37784 11.7264 7.65956 11.7264 7.96023V8.44318C11.7264 8.85511 11.7974 9.20431 11.9395 9.49077C12.0839 9.77486 12.2839 9.99148 12.5396 10.1406C12.7953 10.2874 13.0924 10.3608 13.4309 10.3608C13.6511 10.3608 13.85 10.33 14.0275 10.2685C14.2074 10.2045 14.3625 10.1098 14.4927 9.98438C14.6229 9.85653 14.7235 9.69792 14.7946 9.50852L15.6042 9.7358C15.519 10.0104 15.3758 10.2519 15.1745 10.4602C14.9733 10.6662 14.7247 10.8272 14.4288 10.9432C14.1329 11.0568 13.8002 11.1136 13.4309 11.1136ZM17.8024 3.72727V11H16.9643V3.72727H17.8024ZM21.6243 11.1136C21.0987 11.1136 20.6454 10.9976 20.2642 10.7656C19.8854 10.5312 19.593 10.2045 19.3871 9.78551C19.1835 9.36411 19.0817 8.87405 19.0817 8.31534C19.0817 7.75663 19.1835 7.2642 19.3871 6.83807C19.593 6.40956 19.8795 6.07576 20.2464 5.83665C20.6158 5.59517 21.0466 5.47443 21.5391 5.47443C21.8232 5.47443 22.1037 5.52178 22.3807 5.61648C22.6577 5.71117 22.9098 5.86506 23.1371 6.07812C23.3643 6.28883 23.5455 6.56818 23.6804 6.91619C23.8153 7.2642 23.8828 7.69271 23.8828 8.2017V8.55682H19.6783V7.83239H23.0305C23.0305 7.52462 22.969 7.25 22.8459 7.00852C22.7251 6.76705 22.5523 6.57647 22.3274 6.43679C22.1049 6.29711 21.8421 6.22727 21.5391 6.22727C21.2053 6.22727 20.9164 6.31013 20.6726 6.47585C20.4311 6.6392 20.2453 6.85227 20.1151 7.11506C19.9848 7.37784 19.9197 7.65956 19.9197 7.96023V8.44318C19.9197 8.85511 19.9908 9.20431 20.1328 9.49077C20.2772 9.77486 20.4773 9.99148 20.733 10.1406C20.9886 10.2874 21.2857 10.3608 21.6243 10.3608C21.8445 10.3608 22.0433 10.33 22.2209 10.2685C22.4008 10.2045 22.5559 10.1098 22.6861 9.98438C22.8163 9.85653 22.9169 9.69792 22.9879 9.50852L23.7976 9.7358C23.7124 10.0104 23.5691 10.2519 23.3679 10.4602C23.1667 10.6662 22.9181 10.8272 22.6222 10.9432C22.3262 11.0568 21.9936 11.1136 21.6243 11.1136ZM27.3736 11.1136C26.8622 11.1136 26.4219 10.9929 26.0526 10.7514C25.6832 10.5099 25.3991 10.1773 25.2003 9.75355C25.0014 9.32978 24.902 8.84564 24.902 8.30114C24.902 7.74716 25.0038 7.25829 25.2074 6.83452C25.4134 6.40838 25.6998 6.07576 26.0668 5.83665C26.4361 5.59517 26.867 5.47443 27.3594 5.47443C27.7429 5.47443 28.0885 5.54545 28.3963 5.6875C28.7041 5.82955 28.9562 6.02841 29.1527 6.28409C29.3492 6.53977 29.4711 6.83807 29.5185 7.17898H28.6804C28.6165 6.9304 28.4744 6.71023 28.2543 6.51847C28.0365 6.32434 27.7429 6.22727 27.3736 6.22727C27.0469 6.22727 26.7604 6.3125 26.5142 6.48295C26.2704 6.65104 26.0798 6.88897 25.9425 7.19673C25.8075 7.50213 25.7401 7.8608 25.7401 8.27273C25.7401 8.69413 25.8063 9.06108 25.9389 9.37358C26.0739 9.68608 26.2633 9.92874 26.5071 10.1016C26.7533 10.2744 27.0421 10.3608 27.3736 10.3608C27.5914 10.3608 27.7891 10.3229 27.9666 10.2472C28.1442 10.1714 28.2945 10.0625 28.4176 9.92045C28.5407 9.77841 28.6283 9.60795 28.6804 9.40909H29.5185C29.4711 9.73106 29.3539 10.0211 29.1669 10.2791C28.9822 10.5348 28.7372 10.7384 28.4318 10.8899C28.1288 11.0391 27.776 11.1136 27.3736 11.1136ZM33.1158 5.54545V6.25568H30.2891V5.54545H33.1158ZM31.1129 4.23864H31.951V9.4375C31.951 9.67424 31.9853 9.8518 32.054 9.97017C32.125 10.0862 32.215 10.1643 32.3239 10.2045C32.4351 10.2424 32.5523 10.2614 32.6754 10.2614C32.7678 10.2614 32.8435 10.2566 32.9027 10.2472C32.9619 10.2353 33.0092 10.2259 33.0447 10.2188L33.2152 10.9716C33.1584 10.9929 33.0791 11.0142 32.9773 11.0355C32.8755 11.0592 32.7464 11.071 32.5902 11.071C32.3535 11.071 32.1214 11.0201 31.8942 10.9183C31.6693 10.8165 31.4822 10.6615 31.3331 10.4531C31.1863 10.2448 31.1129 9.98201 31.1129 9.66477V4.23864ZM41.0526 6.76705L40.2997 6.98011C40.2524 6.85464 40.1825 6.73272 40.0902 6.61435C40.0002 6.49361 39.8771 6.39418 39.7209 6.31605C39.5646 6.23793 39.3646 6.19886 39.1207 6.19886C38.7869 6.19886 38.5088 6.2758 38.2862 6.42969C38.0661 6.5812 37.956 6.77415 37.956 7.00852C37.956 7.21686 38.0317 7.38139 38.1832 7.50213C38.3348 7.62287 38.5715 7.72348 38.8935 7.80398L39.7031 8.00284C40.1908 8.12121 40.5542 8.30232 40.7933 8.54616C41.0324 8.78764 41.152 9.09896 41.152 9.48011C41.152 9.79261 41.062 10.072 40.8821 10.3182C40.7045 10.5644 40.456 10.7585 40.1364 10.9006C39.8168 11.0426 39.4451 11.1136 39.0213 11.1136C38.465 11.1136 38.0045 10.9929 37.6399 10.7514C37.2753 10.5099 37.0445 10.1572 36.9474 9.69318L37.7429 9.49432C37.8187 9.78788 37.9619 10.008 38.1726 10.1548C38.3857 10.3016 38.6638 10.375 39.0071 10.375C39.3977 10.375 39.7079 10.2921 39.9375 10.1264C40.1695 9.95833 40.2855 9.7571 40.2855 9.52273C40.2855 9.33333 40.2192 9.17472 40.0866 9.04688C39.9541 8.91667 39.7505 8.8196 39.4759 8.75568L38.5668 8.54261C38.0672 8.42424 37.7003 8.24077 37.4659 7.99219C37.2339 7.74124 37.1179 7.42756 37.1179 7.05114C37.1179 6.74337 37.2043 6.47112 37.3771 6.23438C37.5523 5.99763 37.7902 5.81179 38.0909 5.67685C38.3939 5.5419 38.7372 5.47443 39.1207 5.47443C39.6605 5.47443 40.0843 5.5928 40.392 5.82955C40.7022 6.06629 40.9223 6.37879 41.0526 6.76705ZM42.4135 11V5.54545H43.2516V11H42.4135ZM42.8397 4.63636C42.6763 4.63636 42.5355 4.58073 42.4171 4.46946C42.3011 4.35819 42.2431 4.22443 42.2431 4.06818C42.2431 3.91193 42.3011 3.77817 42.4171 3.6669C42.5355 3.55563 42.6763 3.5 42.8397 3.5C43.003 3.5 43.1427 3.55563 43.2587 3.6669C43.3771 3.77817 43.4363 3.91193 43.4363 4.06818C43.4363 4.22443 43.3771 4.35819 43.2587 4.46946C43.1427 4.58073 43.003 4.63636 42.8397 4.63636ZM44.6303 11V10.3608L47.7269 6.38352V6.3267H44.7298V5.54545H48.8065V6.21307L45.7951 10.1619V10.2188H48.9059V11H44.6303ZM52.3274 11.1136C51.8018 11.1136 51.3485 10.9976 50.9673 10.7656C50.5885 10.5312 50.2962 10.2045 50.0902 9.78551C49.8866 9.36411 49.7848 8.87405 49.7848 8.31534C49.7848 7.75663 49.8866 7.2642 50.0902 6.83807C50.2962 6.40956 50.5826 6.07576 50.9496 5.83665C51.3189 5.59517 51.7498 5.47443 52.2422 5.47443C52.5263 5.47443 52.8068 5.52178 53.0838 5.61648C53.3608 5.71117 53.6129 5.86506 53.8402 6.07812C54.0675 6.28883 54.2486 6.56818 54.3835 6.91619C54.5185 7.2642 54.5859 7.69271 54.5859 8.2017V8.55682H50.3814V7.83239H53.7337C53.7337 7.52462 53.6721 7.25 53.549 7.00852C53.4283 6.76705 53.2554 6.57647 53.0305 6.43679C52.808 6.29711 52.5452 6.22727 52.2422 6.22727C51.9084 6.22727 51.6196 6.31013 51.3757 6.47585C51.1342 6.6392 50.9484 6.85227 50.8182 7.11506C50.688 7.37784 50.6229 7.65956 50.6229 7.96023V8.44318C50.6229 8.85511 50.6939 9.20431 50.8359 9.49077C50.9804 9.77486 51.1804 9.99148 51.4361 10.1406C51.6918 10.2874 51.9889 10.3608 52.3274 10.3608C52.5476 10.3608 52.7464 10.33 52.924 10.2685C53.1039 10.2045 53.259 10.1098 53.3892 9.98438C53.5194 9.85653 53.62 9.69792 53.6911 9.50852L54.5007 9.7358C54.4155 10.0104 54.2723 10.2519 54.071 10.4602C53.8698 10.6662 53.6212 10.8272 53.3253 10.9432C53.0294 11.0568 52.6967 11.1136 52.3274 11.1136Z" fill="white"/>
<path d="M65.5 11L62.4689 5.75L68.5311 5.75L65.5 11Z" fill="white"/>
</svg>
